<svg width="25" height="25" viewBox="0 0 25 25" fill="none" xmlns="http://www.w3.org/2000/svg">
<path fill-rule="evenodd" clip-rule="evenodd" d="M1.39746 3.37218C1.39746 2.88471 1.59111 2.41721 1.9358 2.07252C2.28049 1.72783 2.74799 1.53418 3.23546 1.53418H21.5575C21.799 1.53379 22.0383 1.58105 22.2616 1.67325C22.4849 1.76545 22.6878 1.90079 22.8587 2.07152C23.0296 2.24224 23.1652 2.44501 23.2576 2.66819C23.3501 2.89138 23.3976 3.13061 23.3975 3.37218V21.6942C23.3977 21.9358 23.3503 22.1751 23.258 22.3984C23.1657 22.6217 23.0303 22.8246 22.8595 22.9955C22.6887 23.1664 22.4858 23.3019 22.2626 23.3944C22.0394 23.4868 21.8001 23.5343 21.5585 23.5342H3.23546C2.99401 23.5342 2.75492 23.4866 2.53186 23.3942C2.3088 23.3017 2.10613 23.1663 1.93545 22.9955C1.76476 22.8247 1.62939 22.622 1.53708 22.3989C1.44477 22.1757 1.39733 21.9366 1.39746 21.6952V3.37218ZM10.1055 9.92218H13.0845V11.4182C13.5145 10.5582 14.6145 9.78418 16.2675 9.78418C19.4365 9.78418 20.1875 11.4972 20.1875 14.6402V20.4622H16.9805V15.3562C16.9805 13.5662 16.5505 12.5562 15.4585 12.5562C13.9435 12.5562 13.3135 13.6452 13.3135 15.3562V20.4622H10.1055V9.92218ZM4.60546 20.3252H7.81346V9.78418H4.60546V20.3242V20.3252ZM8.27246 6.34618C8.27851 6.62085 8.22963 6.89397 8.1287 7.1495C8.02777 7.40502 7.87681 7.63782 7.68469 7.83421C7.49257 8.03061 7.26316 8.18666 7.00992 8.29319C6.75667 8.39972 6.4847 8.4546 6.20996 8.4546C5.93522 8.4546 5.66325 8.39972 5.41001 8.29319C5.15676 8.18666 4.92735 8.03061 4.73523 7.83421C4.54311 7.63782 4.39215 7.40502 4.29122 7.1495C4.19029 6.89397 4.14141 6.62085 4.14746 6.34618C4.15933 5.80704 4.38185 5.29397 4.76735 4.91687C5.15285 4.53976 5.67069 4.3286 6.20996 4.3286C6.74924 4.3286 7.26708 4.53976 7.65258 4.91687C8.03808 5.29397 8.26059 5.80704 8.27246 6.34618Z" fill="white"/>
</svg>
