<svg width="25" height="25" viewBox="0 0 25 25" fill="none" xmlns="http://www.w3.org/2000/svg">
<g clip-path="url(#clip0)">
<path fill-rule="evenodd" clip-rule="evenodd" d="M0.397461 12.6012C0.397461 18.5672 4.73046 23.5282 10.3975 24.5342V15.8672H7.39746V12.5342H10.3975V9.86718C10.3975 6.86718 12.3305 5.20118 15.0645 5.20118C15.9305 5.20118 16.8645 5.33418 17.7305 5.46718V8.53418H16.1975C14.7305 8.53418 14.3975 9.26718 14.3975 10.2012V12.5342H17.5975L17.0645 15.8672H14.3975V24.5342C20.0645 23.5282 24.3975 18.5682 24.3975 12.6012C24.3975 5.96418 18.9975 0.53418 12.3975 0.53418C5.79746 0.53418 0.397461 5.96418 0.397461 12.6012Z" fill="white"/>
</g>
<defs>
<clipPath id="clip0">
<rect width="24" height="24" fill="white" transform="translate(0.397461 0.53418)"/>
</clipPath>
</defs>
</svg>
