<svg width="25" height="25" viewBox="0 0 25 25" fill="none" xmlns="http://www.w3.org/2000/svg">
<path fill-rule="evenodd" clip-rule="evenodd" d="M7.86246 1.60018C9.03546 1.54618 9.40946 1.53418 12.3975 1.53418C15.3855 1.53418 15.7595 1.54718 16.9315 1.60018C18.1035 1.65318 18.9035 1.84018 19.6035 2.11118C20.3365 2.38818 21.0015 2.82118 21.5515 3.38118C22.1115 3.93018 22.5435 4.59418 22.8195 5.32818C23.0915 6.02818 23.2775 6.82818 23.3315 7.99818C23.3855 9.17318 23.3975 9.54718 23.3975 12.5342C23.3975 15.5222 23.3845 15.8962 23.3315 17.0692C23.2785 18.2392 23.0915 19.0392 22.8195 19.7392C22.5435 20.4733 22.1107 21.1384 21.5515 21.6882C21.0015 22.2482 20.3365 22.6802 19.6035 22.9562C18.9035 23.2282 18.1035 23.4142 16.9335 23.4682C15.7595 23.5222 15.3855 23.5342 12.3975 23.5342C9.40946 23.5342 9.03546 23.5212 7.86246 23.4682C6.69246 23.4152 5.89246 23.2282 5.19246 22.9562C4.45838 22.6801 3.79328 22.2474 3.24346 21.6882C2.68384 21.1388 2.25078 20.4741 1.97446 19.7402C1.70346 19.0402 1.51746 18.2402 1.46346 17.0702C1.40946 15.8952 1.39746 15.5212 1.39746 12.5342C1.39746 9.54618 1.41046 9.17218 1.46346 8.00018C1.51646 6.82818 1.70346 6.02818 1.97446 5.32818C2.25118 4.59426 2.68458 3.92949 3.24446 3.38018C3.7935 2.82068 4.45793 2.38762 5.19146 2.11118C5.89146 1.84018 6.69146 1.65418 7.86146 1.60018H7.86246ZM16.8425 3.58018C15.6825 3.52718 15.3345 3.51618 12.3975 3.51618C9.46046 3.51618 9.11246 3.52718 7.95246 3.58018C6.87946 3.62918 6.29746 3.80818 5.90946 3.95918C5.39646 4.15918 5.02946 4.39618 4.64446 4.78118C4.27951 5.13623 3.99864 5.56846 3.82246 6.04618C3.67146 6.43418 3.49246 7.01618 3.44346 8.08918C3.39046 9.24918 3.37946 9.59718 3.37946 12.5342C3.37946 15.4712 3.39046 15.8192 3.44346 16.9792C3.49246 18.0522 3.67146 18.6342 3.82246 19.0222C3.99846 19.4992 4.27946 19.9322 4.64446 20.2872C4.99946 20.6522 5.43246 20.9332 5.90946 21.1092C6.29746 21.2602 6.87946 21.4392 7.95246 21.4882C9.11246 21.5412 9.45946 21.5522 12.3975 21.5522C15.3355 21.5522 15.6825 21.5412 16.8425 21.4882C17.9155 21.4392 18.4975 21.2602 18.8855 21.1092C19.3985 20.9092 19.7655 20.6722 20.1505 20.2872C20.5155 19.9322 20.7965 19.4992 20.9725 19.0222C21.1235 18.6342 21.3025 18.0522 21.3515 16.9792C21.4045 15.8192 21.4155 15.4712 21.4155 12.5342C21.4155 9.59718 21.4045 9.24918 21.3515 8.08918C21.3025 7.01618 21.1235 6.43418 20.9725 6.04618C20.7725 5.53318 20.5355 5.16618 20.1505 4.78118C19.7954 4.41625 19.3632 4.13539 18.8855 3.95918C18.4975 3.80818 17.9155 3.62918 16.8425 3.58018ZM10.9925 15.9252C11.7771 16.2518 12.6508 16.2959 13.4644 16.0499C14.2779 15.8039 14.9809 15.2831 15.4531 14.5764C15.9253 13.8697 16.1375 13.0211 16.0535 12.1753C15.9695 11.3295 15.5945 10.5392 14.9925 9.93918C14.6087 9.55566 14.1447 9.26199 13.6338 9.07933C13.1229 8.89666 12.5779 8.82954 12.038 8.8828C11.498 8.93605 10.9766 9.10836 10.5113 9.38731C10.0459 9.66626 9.6482 10.0449 9.34676 10.496C9.04532 10.9471 8.84765 11.4595 8.76798 11.9961C8.6883 12.5328 8.72861 13.0805 8.886 13.5997C9.04339 14.1189 9.31394 14.5968 9.67818 14.9989C10.0424 15.401 10.4913 15.7174 10.9925 15.9252ZM8.39946 8.53618C8.92449 8.01115 9.54778 7.59468 10.2338 7.31054C10.9197 7.0264 11.655 6.88015 12.3975 6.88015C13.14 6.88015 13.8752 7.0264 14.5612 7.31054C15.2471 7.59468 15.8704 8.01115 16.3955 8.53618C16.9205 9.0612 17.337 9.6845 17.6211 10.3705C17.9052 11.0565 18.0515 11.7917 18.0515 12.5342C18.0515 13.2767 17.9052 14.0119 17.6211 14.6979C17.337 15.3839 16.9205 16.0072 16.3955 16.5322C15.3351 17.5925 13.897 18.1882 12.3975 18.1882C10.8979 18.1882 9.4598 17.5925 8.39946 16.5322C7.33913 15.4718 6.74344 14.0337 6.74344 12.5342C6.74344 11.0346 7.33913 9.59651 8.39946 8.53618ZM19.3055 7.72218C19.4356 7.59945 19.5397 7.45186 19.6118 7.28815C19.6838 7.12445 19.7223 6.94795 19.7249 6.76911C19.7275 6.59027 19.6942 6.41273 19.6269 6.24699C19.5597 6.08125 19.4599 5.93069 19.3334 5.80422C19.2069 5.67775 19.0564 5.57794 18.8907 5.5107C18.7249 5.44346 18.5474 5.41016 18.3685 5.41276C18.1897 5.41537 18.0132 5.45383 17.8495 5.52588C17.6858 5.59792 17.5382 5.70208 17.4155 5.83218C17.1768 6.08521 17.0461 6.4213 17.0512 6.76911C17.0562 7.11692 17.1967 7.44906 17.4426 7.69502C17.6886 7.94099 18.0207 8.08141 18.3685 8.08648C18.7163 8.09155 19.0524 7.96087 19.3055 7.72218Z" fill="white"/>
</svg>
